<svg xmlns="http://www.w3.org/2000/svg" xmlns:xlink="http://www.w3.org/1999/xlink" width="328" height="866" viewBox="0 0 328 866"><defs><style>.a{fill:#fff;stroke:#707070;}.b{clip-path:url(#a);}.c{fill:#0aaec5;}.c,.d{fill-rule:evenodd;}.d{fill:#006370;}</style><clipPath id="a"><rect class="a" width="328" height="866"/></clipPath></defs><g class="b"><g transform="translate(-873.496 -493.883) rotate(21)"><path class="c" d="M227.512,128.025A30.513,30.513,0,1,0,197,97.513,30.513,30.513,0,0,0,227.512,128.025ZM354.353,97.513A30.513,30.513,0,1,1,323.84,67,30.513,30.513,0,0,1,354.353,97.513Zm65.814,30.513a30.513,30.513,0,1,0-30.512-30.513A30.513,30.513,0,0,0,420.167,128.025ZM547.008,97.513A30.513,30.513,0,1,1,516.495,67,30.513,30.513,0,0,1,547.008,97.513Zm65.815,30.513a30.513,30.513,0,1,0-30.512-30.513A30.514,30.514,0,0,0,612.823,128.025ZM739.664,97.513A30.513,30.513,0,1,1,709.15,67,30.514,30.514,0,0,1,739.664,97.513Zm65.814,30.513a30.513,30.513,0,1,0-30.512-30.513A30.514,30.514,0,0,0,805.478,128.025Zm126.84-30.513A30.513,30.513,0,1,1,901.806,67,30.512,30.512,0,0,1,932.318,97.513Zm65.816,30.513A30.513,30.513,0,1,0,967.62,97.513,30.512,30.512,0,0,0,998.134,128.025Zm126.84-30.513A30.513,30.513,0,1,1,1094.461,67,30.512,30.512,0,0,1,1124.973,97.513Zm65.816,30.513a30.513,30.513,0,1,0-30.513-30.513A30.512,30.512,0,0,0,1190.789,128.025Zm126.84-30.513A30.512,30.512,0,1,1,1287.117,67,30.512,30.512,0,0,1,1317.629,97.513ZM258.025,290.169a30.513,30.513,0,1,1-30.513-30.512A30.513,30.513,0,0,1,258.025,290.169Zm65.814,30.513a30.513,30.513,0,1,0-30.512-30.513A30.513,30.513,0,0,0,323.84,320.682ZM450.68,290.169a30.512,30.512,0,1,1-30.513-30.512A30.513,30.513,0,0,1,450.68,290.169Zm65.815,30.513a30.513,30.513,0,1,0-30.512-30.513A30.513,30.513,0,0,0,516.495,320.682Zm126.841-30.513a30.513,30.513,0,1,1-30.513-30.512A30.514,30.514,0,0,1,643.336,290.169Zm65.814,30.513a30.513,30.513,0,1,0-30.512-30.513A30.515,30.515,0,0,0,709.15,320.682Zm126.841-30.513a30.513,30.513,0,1,1-30.513-30.512A30.514,30.514,0,0,1,835.991,290.169Zm65.814,30.513a30.513,30.513,0,1,0-30.513-30.513A30.513,30.513,0,0,0,901.806,320.682Zm126.84-30.513a30.513,30.513,0,1,1-30.512-30.512A30.513,30.513,0,0,1,1028.646,290.169Zm65.816,30.513a30.513,30.513,0,1,0-30.513-30.513A30.513,30.513,0,0,0,1094.461,320.682Zm126.84-30.513a30.513,30.513,0,1,1-30.512-30.512A30.513,30.513,0,0,1,1221.3,290.169Zm65.816,30.513a30.513,30.513,0,1,0-30.513-30.513A30.513,30.513,0,0,0,1287.117,320.682ZM274.583,224.354a30.513,30.513,0,1,0-30.513-30.512A30.512,30.512,0,0,0,274.583,224.354Zm126.84-30.512a30.513,30.513,0,1,1-30.512-30.513A30.512,30.512,0,0,1,401.423,193.842Zm65.814,30.512a30.513,30.513,0,1,0-30.512-30.512A30.512,30.512,0,0,0,467.237,224.354Zm126.841-30.512a30.513,30.513,0,1,1-30.513-30.513A30.512,30.512,0,0,1,594.078,193.842Zm65.815,30.512a30.513,30.513,0,1,0-30.512-30.512A30.512,30.512,0,0,0,659.893,224.354Zm126.841-30.512a30.513,30.513,0,1,1-30.513-30.513A30.512,30.512,0,0,1,786.734,193.842Zm65.814,30.512a30.513,30.513,0,1,0-30.512-30.512A30.513,30.513,0,0,0,852.548,224.354Zm126.84-30.512a30.512,30.512,0,1,1-30.512-30.513A30.512,30.512,0,0,1,979.388,193.842Zm65.816,30.512a30.513,30.513,0,1,0-30.512-30.512A30.512,30.512,0,0,0,1045.2,224.354Zm126.84-30.512a30.513,30.513,0,1,1-30.512-30.513A30.512,30.512,0,0,1,1172.044,193.842Zm65.816,30.512a30.513,30.513,0,1,0-30.513-30.512A30.512,30.512,0,0,0,1237.859,224.354ZM305.1,386.495a30.513,30.513,0,1,1-30.512-30.512A30.512,30.512,0,0,1,305.1,386.495Zm65.816,30.513A30.513,30.513,0,1,0,340.4,386.495,30.512,30.512,0,0,0,370.911,417.008Zm126.84-30.513a30.513,30.513,0,1,1-30.513-30.512A30.512,30.512,0,0,1,497.751,386.495Zm65.814,30.513a30.513,30.513,0,1,0-30.512-30.513A30.512,30.512,0,0,0,563.565,417.008Zm126.841-30.513a30.513,30.513,0,1,1-30.513-30.512A30.512,30.512,0,0,1,690.406,386.495Zm65.814,30.513a30.513,30.513,0,1,0-30.512-30.513A30.512,30.512,0,0,0,756.221,417.008Zm126.841-30.513a30.513,30.513,0,1,1-30.513-30.512A30.513,30.513,0,0,1,883.062,386.495Zm65.814,30.513a30.513,30.513,0,1,0-30.512-30.513A30.512,30.512,0,0,0,948.876,417.008Zm126.84-30.513a30.512,30.512,0,1,1-30.512-30.512A30.512,30.512,0,0,1,1075.716,386.495Zm65.816,30.513a30.513,30.513,0,1,0-30.513-30.513A30.512,30.512,0,0,0,1141.531,417.008Zm126.84-30.513a30.513,30.513,0,1,1-30.512-30.512A30.512,30.512,0,0,1,1268.371,386.495ZM227.512,513.334A30.512,30.512,0,1,0,197,482.823,30.512,30.512,0,0,0,227.512,513.334Zm126.841-30.512a30.513,30.513,0,1,1-30.513-30.513A30.512,30.512,0,0,1,354.353,482.823Zm65.814,30.512a30.512,30.512,0,1,0-30.512-30.512A30.512,30.512,0,0,0,420.167,513.334Zm126.841-30.512a30.513,30.513,0,1,1-30.513-30.513A30.512,30.512,0,0,1,547.008,482.823Zm65.815,30.512a30.512,30.512,0,1,0-30.512-30.512A30.513,30.513,0,0,0,612.823,513.334Zm126.841-30.512a30.513,30.513,0,1,1-30.513-30.513A30.513,30.513,0,0,1,739.664,482.823Zm65.814,30.512a30.512,30.512,0,1,0-30.512-30.512A30.513,30.513,0,0,0,805.478,513.334Zm126.84-30.512a30.513,30.513,0,1,1-30.512-30.513A30.512,30.512,0,0,1,932.318,482.823Zm65.816,30.512a30.512,30.512,0,1,0-30.513-30.512A30.512,30.512,0,0,0,998.134,513.334Zm126.84-30.512a30.513,30.513,0,1,1-30.512-30.513A30.512,30.512,0,0,1,1124.973,482.823Zm65.816,30.512a30.512,30.512,0,1,0-30.513-30.512A30.512,30.512,0,0,0,1190.789,513.334Zm126.84-30.512a30.512,30.512,0,1,1-30.512-30.513A30.512,30.512,0,0,1,1317.629,482.823ZM258.025,675.478a30.513,30.513,0,1,1-30.513-30.512A30.512,30.512,0,0,1,258.025,675.478Zm65.814,30.513a30.513,30.513,0,1,0-30.512-30.513A30.512,30.512,0,0,0,323.84,705.991ZM450.68,675.478a30.512,30.512,0,1,1-30.513-30.512A30.512,30.512,0,0,1,450.68,675.478Zm65.815,30.513a30.513,30.513,0,1,0-30.512-30.513A30.512,30.512,0,0,0,516.495,705.991Zm126.841-30.513a30.513,30.513,0,1,1-30.513-30.512A30.513,30.513,0,0,1,643.336,675.478Zm65.814,30.513a30.513,30.513,0,1,0-30.512-30.513A30.514,30.514,0,0,0,709.15,705.991Zm126.841-30.513a30.513,30.513,0,1,1-30.513-30.512A30.513,30.513,0,0,1,835.991,675.478Zm65.814,30.513a30.513,30.513,0,1,0-30.513-30.513A30.512,30.512,0,0,0,901.806,705.991Zm126.84-30.513a30.513,30.513,0,1,1-30.512-30.512A30.512,30.512,0,0,1,1028.646,675.478Zm65.816,30.513a30.513,30.513,0,1,0-30.513-30.513A30.512,30.512,0,0,0,1094.461,705.991Zm126.84-30.513a30.513,30.513,0,1,1-30.512-30.512A30.512,30.512,0,0,1,1221.3,675.478Zm65.816,30.513a30.513,30.513,0,1,0-30.513-30.513A30.512,30.512,0,0,0,1287.117,705.991ZM227.512,898.644A30.512,30.512,0,1,0,197,868.132,30.512,30.512,0,0,0,227.512,898.644Zm126.841-30.512A30.513,30.513,0,1,1,323.84,837.62,30.512,30.512,0,0,1,354.353,868.132Zm65.814,30.512a30.512,30.512,0,1,0-30.512-30.512A30.512,30.512,0,0,0,420.167,898.644Zm126.841-30.512a30.513,30.513,0,1,1-30.513-30.512A30.512,30.512,0,0,1,547.008,868.132Zm65.815,30.512a30.512,30.512,0,1,0-30.512-30.512A30.513,30.513,0,0,0,612.823,898.644Zm126.841-30.512A30.513,30.513,0,1,1,709.15,837.62,30.513,30.513,0,0,1,739.664,868.132Zm65.814,30.512a30.512,30.512,0,1,0-30.512-30.512A30.513,30.513,0,0,0,805.478,898.644Zm126.84-30.512a30.513,30.513,0,1,1-30.512-30.512A30.512,30.512,0,0,1,932.318,868.132Zm65.816,30.512a30.512,30.512,0,1,0-30.513-30.512A30.512,30.512,0,0,0,998.134,898.644Zm126.84-30.512a30.513,30.513,0,1,1-30.512-30.512A30.512,30.512,0,0,1,1124.973,868.132Zm65.816,30.512a30.512,30.512,0,1,0-30.513-30.512A30.512,30.512,0,0,0,1190.789,898.644Zm126.84-30.512a30.512,30.512,0,1,1-30.512-30.512A30.512,30.512,0,0,1,1317.629,868.132ZM305.1,579.152a30.513,30.513,0,1,1-30.512-30.512A30.512,30.512,0,0,1,305.1,579.152Zm65.816,30.512A30.512,30.512,0,1,0,340.4,579.152,30.512,30.512,0,0,0,370.911,609.664Zm126.84-30.512a30.513,30.513,0,1,1-30.513-30.512A30.512,30.512,0,0,1,497.751,579.152Zm65.814,30.512a30.512,30.512,0,1,0-30.512-30.512A30.512,30.512,0,0,0,563.565,609.664Zm126.841-30.512a30.513,30.513,0,1,1-30.513-30.512A30.512,30.512,0,0,1,690.406,579.152Zm65.814,30.512a30.512,30.512,0,1,0-30.512-30.512A30.512,30.512,0,0,0,756.221,609.664Zm126.841-30.512a30.513,30.513,0,1,1-30.513-30.512A30.513,30.513,0,0,1,883.062,579.152Zm65.814,30.512a30.512,30.512,0,1,0-30.512-30.512A30.512,30.512,0,0,0,948.876,609.664Zm126.84-30.512A30.512,30.512,0,1,1,1045.2,548.64,30.512,30.512,0,0,1,1075.716,579.152Zm65.816,30.512a30.512,30.512,0,1,0-30.513-30.512A30.512,30.512,0,0,0,1141.531,609.664Zm126.84-30.512a30.513,30.513,0,1,1-30.512-30.512A30.512,30.512,0,0,1,1268.371,579.152ZM274.583,802.318a30.513,30.513,0,1,0-30.513-30.512A30.512,30.512,0,0,0,274.583,802.318Zm126.84-30.512a30.513,30.513,0,1,1-30.512-30.513A30.512,30.512,0,0,1,401.423,771.806Zm65.814,30.512a30.513,30.513,0,1,0-30.512-30.512A30.512,30.512,0,0,0,467.237,802.318Zm126.841-30.512a30.513,30.513,0,1,1-30.513-30.513A30.512,30.512,0,0,1,594.078,771.806Zm65.815,30.512a30.513,30.513,0,1,0-30.512-30.512A30.512,30.512,0,0,0,659.893,802.318Zm126.841-30.512a30.513,30.513,0,1,1-30.513-30.513A30.512,30.512,0,0,1,786.734,771.806Zm65.814,30.512a30.513,30.513,0,1,0-30.512-30.512A30.513,30.513,0,0,0,852.548,802.318Zm126.84-30.512a30.512,30.512,0,1,1-30.512-30.513A30.512,30.512,0,0,1,979.388,771.806Zm65.816,30.512a30.513,30.513,0,1,0-30.512-30.512A30.512,30.512,0,0,0,1045.2,802.318Zm126.84-30.512a30.513,30.513,0,1,1-30.512-30.513A30.512,30.512,0,0,1,1172.044,771.806Zm65.816,30.512a30.513,30.513,0,1,0-30.513-30.512A30.512,30.512,0,0,0,1237.859,802.318Z" transform="translate(0)"/><path class="d" d="M235.134,127.2l-21.215,6.78,4.736-21.763Zm1029.687,8.757,1.293-22.235-19.9,10ZM473.975,260.368l18.294,12.7-20.149,9.491Zm0,376.273,18.294,12.7-20.149,9.491ZM1009.75,284.188l1.293-22.235-19.9,10Zm1.293,355.432-1.293,22.233-18.609-12.237Zm234.719-166.6,1.293-22.235-19.9,10ZM251.2,450.786,249.91,473.02,231.3,460.784Zm482.211,20.258,21.215-6.78L738.15,449.281ZM252.252,786.964l18.294,12.7L250.4,809.159Zm502.627,12.7-18.293-12.7-1.855,22.2Zm479.281-11.815-1.293,22.235-18.609-12.237Zm-488.643-652,.925-22.254-19.734,10.326Z" transform="translate(7.968 21.293)"/></g></g></svg>