<svg xmlns="http://www.w3.org/2000/svg" xmlns:xlink="http://www.w3.org/1999/xlink" width="1227" height="866" viewBox="0 0 1227 866"><defs><style>.a,.c,.i{fill:#fff;}.a{stroke:#707070;}.b{clip-path:url(#a);}.d,.j{fill:#0aaec5;}.e{fill:rgba(255,252,221,0.62);}.f{fill:#8fbcff;}.g{fill:#eaf2ff;}.h{fill:rgba(255,255,255,0.9);}.aa,.ac,.ae,.i,.j,.k,.r{fill-rule:evenodd;}.k{fill:rgba(0,0,0,0.18);}.l,.n,.o,.p,.s,.u,.w,.y{fill:none;}.l,.o{stroke:#d69962;}.l,.n,.o,.p,.s,.w{stroke-linecap:round;}.l{stroke-width:12px;}.m{fill:#ffb877;}.n,.p{stroke:#ffb877;}.n{stroke-width:13px;}.o{stroke-width:23px;}.p{stroke-width:24px;}.q{fill:#32b394;}.r{fill:rgba(0,0,0,0.44);}.s,.u{stroke:#4f4f4f;}.s,.u,.w,.y{stroke-width:2px;}.t{fill:#174b88;}.aa,.v{fill:#2a71c4;}.w,.y{stroke:rgba(34,34,34,0.29);}.x{fill:rgba(0,0,0,0.2);}.z{fill:#43fdd0;}.ab{fill:rgba(0,0,0,0.19);}.ac{fill:rgba(0,0,0,0.21);}.ad{fill:rgba(0,0,0,0.06);}.ae{fill:rgba(0,0,0,0.04);}</style><clipPath id="a"><rect class="a" width="1227" height="866" transform="translate(693)"/></clipPath></defs><g class="b" transform="translate(-693)"><g transform="translate(440.21 955.504) rotate(-90)"><path class="c" d="M198.907,412.268c3.918-4.373,8.161-9.1,12.552-14.529-.149-.771-.316-1.55-.492-2.34-4.726,5.9-9.275,10.974-13.443,15.634-13.062,14.585-23.386,26.115-25.716,47.171a80.972,80.972,0,0,0,3.5,32.966c.436-.65.882-1.309,1.346-1.977a78.419,78.419,0,0,1-3-30.785C175.912,437.947,186.068,426.611,198.907,412.268Zm675.381-59.574c-1.857-14.77-13.991-21-30.785-29.624-13.406-6.888-30.088-15.448-46.548-31.277a144.012,144.012,0,0,1-30.117-41.646c-.093,1.225-.176,2.45-.26,3.676a145.446,145.446,0,0,0,29.1,39.307c16.654,16.014,33.467,24.648,46.975,31.593,16.293,8.364,28.055,14.408,29.8,28.194,2.516,20.007-18.317,36.717-38.472,52.88-19.9,15.95-38.685,31.017-35.807,48.916a26.52,26.52,0,0,0,7.046,13.759c1.421.547,2.86,1.086,4.308,1.633-5.1-4.511-8.56-9.673-9.525-15.689-2.7-16.822,15.68-31.565,35.148-47.171C855.693,390.767,876.943,373.722,874.288,352.694ZM721.515,125.9c-17.435-5.069-32.251,11.911-51.023,33.412-23.2,26.57-52.072,59.638-98.25,64.586-23.274,2.5-39.5-3.054-55.2-8.411-18.252-6.238-35.5-12.133-60.985-3.518-22.123,7.473-32.967,19.978-43.457,32.075-11.15,12.839-21.678,24.983-44.8,31.518-22.495,6.36-39.846,2.47-55.155-.956-16.051-3.6-29.912-6.7-44.645,3.333a31.86,31.86,0,0,0-12.227,14.687c.6.139,1.207.278,1.81.427a30.04,30.04,0,0,1,11.456-13.582c14.075-9.581,27.573-6.555,43.2-3.055,15.531,3.482,33.124,7.418,56.064.938,23.664-6.693,34.87-19.607,45.7-32.094,10.323-11.911,21.009-24.212,42.649-31.527,24.88-8.421,41.842-2.627,59.8,3.509,1.6.548,3.194,1.1,4.809,1.634a154.515,154.515,0,0,0,21.371,5.821,101.7,101.7,0,0,0,29.81,1.049c46.9-5.023,76.034-38.4,99.457-65.218,18.326-21,32.808-37.581,49.111-32.846,15.745,4.577,19.4,25.391,24.035,51.747.687,3.9,1.383,7.91,2.154,11.995.659.121,1.318.269,1.968.446-.817-4.354-1.569-8.616-2.293-12.756C742.125,152.12,738.374,130.8,721.515,125.9Z"/><path class="d" d="M1578.6,1533.3c-6.768,114.042-357.026-38.483-1012.655-6.7-83.849,4.052-407.23,111.744-427.743-62.618-3.934-33.425,50.578-155.519,61.085-190.117.718-2.345,1.449-4.723,2.211-7.132,19.811-63.134,51.426-140.9,58.746-273.634.946-17.216.23-36.174-1.57-56.3-.243-2.782-.519-5.592-.808-8.442-12.018-116.755-57.22-268.609-29.937-341.689,23.273-62.33,58.807-51.781,103.537-29.071.992.5,1.983,1,2.975,1.54,45.66,23.479,100.639,58.076,161.733,40.893,59.935-16.848,120.222-264.59,222.082-308.867,16.516-7.168,33.047-6,49.335.368,11.072,8.139,22.51,15.91,35.109,21,54.657,42.5,104.132,119.9,137.484,102.018,91-48.765,148.374-242.251,198.564-222.055a23.207,23.207,0,0,1,3.233,1.609,39.76,39.76,0,0,1,11.164,10.581c22.312,29.543,20.589,113.14,17.873,199.648q-.227,6.635-.427,13.265c-2.18,67.756-4.223,135.677,4.851,179.384,21.472,103.493,127.511,199.046,116.027,301.669-11.346,101.213-171.173,66.313-177.869,136.413-3.98,41.734,48.97,96.927,120.465,156.912,2.334,1.977,4.7,3.922,7.077,5.895C1380.638,1313.62,1583.758,1445.917,1578.6,1533.3Z" transform="translate(0 0)"/></g><g transform="translate(845 250)"><path class="e" d="M786.732,380.056l51.11-86.206h19l19.446,86.206Z"/><rect class="f" width="39.375" height="58.875" transform="translate(692.127 316.327)"/><rect class="g" width="6.362" height="56.915" transform="translate(725.141 315.29)"/><rect class="f" width="129.058" height="7.772" transform="translate(639.908 372.205)"/><rect class="f" width="207.368" height="127.677" rx="17.367" transform="translate(603.287 188.65)"/><rect class="h" width="159.816" height="110.205" transform="translate(627.227 200.586)"/><rect class="g" width="9.262" height="10.039" transform="translate(759.703 372.205)"/><path class="i" d="M271.618,84H233.1V96.812h38.523V387.236a7.227,7.227,0,0,0,7.227,7.226c3.314,0,6.072-2.346,7.724-5.218,2.583-4.489,6.735-7.4,11.416-7.4a12.671,12.671,0,0,1,9.721,4.948c3.231,3.905,10.1,7.671,15.169,7.671h6.953c5.069,0,11.938-3.766,15.17-7.671a12.022,12.022,0,0,1,19.441,0c3.231,3.905,10.1,7.671,15.169,7.671h6.954c5.069,0,11.938-3.766,15.169-7.671a12.022,12.022,0,0,1,19.441,0c3.232,3.905,10.1,7.671,15.169,7.671H443.3c5.069,0,11.938-3.766,15.17-7.671a12.667,12.667,0,0,1,9.72-4.948c4.682,0,8.833,2.912,11.416,7.4,1.653,2.872,4.411,5.218,7.724,5.218a7.226,7.226,0,0,0,7.227-7.226V96.812h74.9V387.236a7.226,7.226,0,0,0,7.226,7.226c3.314,0,6.072-2.346,7.725-5.218,2.583-4.489,6.735-7.4,11.416-7.4a12.667,12.667,0,0,1,9.72,4.948c3.232,3.905,10.1,7.671,15.17,7.671h6.953c5.069,0,11.938-3.766,15.17-7.671a12.021,12.021,0,0,1,19.44,0c3.232,3.905,10.1,7.671,15.17,7.671V379.977h-37.54V372.2h37.54V316.327H620.654a17.366,17.366,0,0,1-17.367-17.367V206.018a17.366,17.366,0,0,1,17.367-17.367h56.792V96.812h36.022V84H271.618ZM202,539.029H951.862v77.384H202ZM909.125,274.777h-62.25v.086H832.344v13.7h-.814v5.3h29.653V289.3h36.08l-20.17,76.888H862.824v-7.475h-4.477v7.475h-11.7a6.893,6.893,0,0,0,0,13.787h55.589a6.893,6.893,0,1,0,0-13.787h-15.88L906.328,289.3h2.8Zm-283.13-80a17.368,17.368,0,0,0-17.367,17.367v81.284a17.367,17.367,0,0,0,17.367,17.367h1.231v-110.2H787.041v110.2h.507a17.368,17.368,0,0,0,17.367-17.367V212.14a17.368,17.368,0,0,0-17.367-17.367Zm12.67,16.5a4.487,4.487,0,0,1,4.487-4.487H770.241a4.487,4.487,0,1,1,0,8.975H643.152A4.487,4.487,0,0,1,638.665,211.268Zm81.712,24.485a4.487,4.487,0,0,1,4.487-4.488h42.683a4.488,4.488,0,0,1,0,8.975H724.864A4.487,4.487,0,0,1,720.377,235.753Zm0,14.906a4.487,4.487,0,0,1,4.487-4.487h42.683a4.487,4.487,0,0,1,0,8.974H724.864A4.487,4.487,0,0,1,720.377,250.659Zm9.466,20.642a4.488,4.488,0,1,0-4.487-4.487A4.487,4.487,0,0,0,729.843,271.3Zm20.85-4.487a4.487,4.487,0,1,1-4.487-4.488A4.487,4.487,0,0,1,750.693,266.814Zm11.875,4.487a4.488,4.488,0,1,0-4.488-4.487A4.487,4.487,0,0,0,762.568,271.3ZM643.456,227.1a6.947,6.947,0,0,0-6.947,6.947v76.744H712.99V234.047a6.948,6.948,0,0,0-6.947-6.947Zm83.135,53.77h2.292v-2.389h-2.292Zm9.68,0h-2.293v-2.389h2.293Zm5.1,0h2.292v-2.389h-2.292Zm9.68,0h-2.293v-2.389h2.293Zm5.094,0h2.293v-2.389H756.14Zm9.68,0h-2.292v-2.389h2.292Zm-39.229,6.083h2.292v-2.389h-2.292Zm9.68,0h-2.293v-2.389h2.293Zm5.1,0h2.292v-2.389h-2.292Zm9.68,0h-2.293v-2.389h2.293Zm5.094,0h2.293v-2.389H756.14Zm9.68,0h-2.292v-2.389h2.292Zm-39.229,6h2.292v-2.39h-2.292Zm9.68,0h-2.293v-2.39h2.293Zm5.1,0h2.292v-2.39h-2.292Zm9.68,0h-2.293v-2.39h2.293Zm5.094,0h2.293v-2.39H756.14Zm9.68,0h-2.292v-2.39h2.292Zm39.113,23.078h-8.452a17.372,17.372,0,0,0,14.173-17.074V206.018a17.372,17.372,0,0,0-14.172-17.074h8.451A17.366,17.366,0,0,1,822.3,206.311v92.356A17.366,17.366,0,0,1,804.933,316.034Z"/><path class="j" d="M344.268,473.854c0,.14,0,.279.005.418s-.005.271-.005.408a16.176,16.176,0,0,0,16.177,16.176h2.315V597.449h20.722V490.856h34.969V597.449h37.813V490.856h34.969V597.449h20.722V488.708a17,17,0,0,0-8.277-31.856h-58.8L412.89,312.186a23,23,0,0,0-22.458-18.034h-61.07a17,17,0,0,0-22.939,20.1L346.8,464.929A16.921,16.921,0,0,0,344.268,473.854Zm160.886-79.391a14.486,14.486,0,0,1,14.485-14.486H920.294a14.486,14.486,0,0,1,.353,28.967v19.019H904.073v167.35H874.722V427.963H825.193v167.35H795.842V427.963H777.564V408.948h-94.88v19.015H666.109V582.99H636.758V427.963H587.229V582.99h-29.35V427.963H539.6V408.948H519.639A14.485,14.485,0,0,1,505.154,394.463Z"/><rect class="f" width="130.265" height="7.772" transform="translate(527.09 372.205)"/><rect class="g" width="29.652" height="7.772" transform="translate(627.703 372.205)"/><path class="k" d="M519.677,379.977a14.486,14.486,0,1,0,0,28.971h19.96v19.015h30.954V408.948H777.6v19.015H795.88v167.35h13.127V408.9a14.486,14.486,0,0,0-1.154-28.925Zm368.209,47.986v167.35H874.759V427.963ZM570.591,582.99V427.963H557.464V582.99Zm78.88-155.027V582.99H636.344V427.963Z"/><path class="l" d="M523.486,533.393l2.656,48.646"/><path class="m" d="M424.964,233.726l47.351,4.318s-.028,29.919-.892,52.242c-23.18,8.186-50.5-22.085-50.5-22.085Z"/><path class="n" d="M570.166,541.052l16.046,44.491"/><path class="m" d="M416.616,307.7c5.05-9.427,13.831-32.09,12.464-39.98l14.308,8.416c3.577,2.911,10.078,9.321,7.469,11.678s3.037,21.856,4.335,25.538l-14.014-2.6C434.3,312.152,411.566,317.127,416.616,307.7Z"/><path class="o" d="M455.193,356.5l28.4,33.251,55.291-24.854"/><path class="p" d="M471.279,349.771l28.4,33.25,51.954-23.552"/><path class="q" d="M475.578,365.97,457.75,384.53l-8.791-24.177,7.57-15.874Z"/><path class="m" d="M585.917,354.4c-12.081-8.295-25.705-11.451-38.63-6.139-8.651,3.556-3.282,13.924-.55,23.944h20.1c-3.005-2.4-3.511-6.758,4.963-6.217,2.058.132,8.035,4.264,9.613,6.217h19.158C600.717,369.725,598,362.693,585.917,354.4Z"/><path class="r" d="M347,465.684,306.423,314.257a17,17,0,0,1,32.846-8.8L380.278,458.5h80.1a16.176,16.176,0,0,1,0,32.353H444.81V597.449h-9.268V490.856h-7.823V597.449h-9.268V490.856H372.028V597.449H362.76V490.856h-2.315A16.179,16.179,0,0,1,347,465.684ZM500.5,597.449V490.856h-9.268V597.449ZM370.073,336.694l4.3,6.6,6.6,3.7-5.6,3.5-2.3,6.6-4.3-6.6-6.6-3.7,5.5-3.5Zm33.8.4,3.8,5.9,5.8,3.2-4.9,3.1-2.1,5.9-3.8-5.9-5.8-3.2,4.9-3.2Zm-16.7,52.7-4.3-6.6-2.3,6.6-5.6,3.6,6.6,3.6,4.3,6.6,2.4-6.5,5.5-3.6Zm29.5-6.2,3.8,5.9,5.9,3.2-5,3.2-2.1,5.8-3.7-5.9-5.9-3.2,4.9-3.1Zm-16.6,52.8-4.3-6.7-2.4,6.6-5.6,3.6,6.7,3.6,4.3,6.7,2.3-6.6,5.6-3.6Zm29.5-6.2,3.8,5.8,5.8,3.3-4.9,3.1-2.1,5.8-3.8-5.8-5.9-3.3,5-3.1Z"/><path class="s" d="M471.7,257.37c.968,5.487,6.27,7.736,5.625,9.212s-4.808,2.961-4.808,2.961"/><path class="t" d="M440.924,285.414s7.12,2.673,9.552,3.7c-.683,1.877,1.788,13.128,2.272,15.888C452.748,305,443.214,290.222,440.924,285.414Z"/><path class="u" d="M465.238,274.863c.29,1.341,2.242,4.341,6.547,4.441"/><path class="v" d="M454.626,244.879l-11.747-1.439c-2.378,2.657-.593,9.973,1.43,14.9l-8.436,1.131c-1.049-5.245-5.97-10.215-9.992-5.494s6.533,13.581,8.457,19.875-5.31,8.157-8.457,8.856-18.008,5.19-17.133-4.6,1.923-27.394,0-40.157c-1.539-10.21,6.235-9.732,10.315-8.217-.2-.206.032-.859.572-1.827,2.91-13.278,10.5-35.213,17.685-36.308,3.583-.547,6.129,2.714,7.879,7.2,8.953-6.548,18.664-8.974,26.954,1.3a14.305,14.305,0,0,1,2.514,5.571A6.281,6.281,0,0,1,480,207.463c7.719,7.064-2.853,26.917-7.849,34.952C472.153,242.415,465.408,245.7,454.626,244.879Z"/><path class="w" d="M471.7,257.37c.968,5.487,6.27,7.736,5.625,9.212s-4.808,2.961-4.808,2.961"/><path class="x" d="M440.924,285.414s7.12,2.673,9.552,3.7c-.683,1.877,1.788,13.128,2.272,15.888C452.748,305,443.214,290.222,440.924,285.414Z"/><path class="y" d="M465.238,274.863c.29,1.341,2.242,4.341,6.547,4.441"/><path class="z" d="M391.71,431.249c-.885-13.548-25.333-75.807,11.615-122.322,8.854-11.146,38.01-4.289,64.989,11.323,30.021,33.649,33.312,39.582,33.312,39.582l-26.465,20.311-15.468-18.306,3.934,57.074Z"/><path class="aa" d="M442.879,243.44l11.747,1.439c10.782.816,17.526-2.464,17.526-2.464,5-8.035,15.569-27.888,7.85-34.952a6.282,6.282,0,0,0-5.336-1.788,14.276,14.276,0,0,0-2.514-5.571c-8.289-10.273-18-7.847-26.953-1.3-1.75-4.491-4.3-7.752-7.879-7.2-7.182,1.1-14.775,23.03-17.685,36.308-.541.968-.769,1.621-.572,1.827-4.08-1.515-11.854-1.993-10.316,8.217,1.923,12.763.874,30.366,0,40.157-.8,9,11.693,5.932,16.159,4.835h0c.391-.1.72-.176.973-.233,3.147-.7,10.379-2.562,8.456-8.856-.71-2.323-2.6-5-4.491-7.682-3.238-4.59-6.5-9.215-3.965-12.193,4.021-4.721,8.942.249,9.991,5.494l8.437-1.131C442.286,253.413,440.5,246.1,442.879,243.44ZM463.606,418.6l.022.315-66.239,11.365.3,8.364a21.251,21.251,0,0,0,21.236,20.487c21.047,0,45.908.026,66.93,1.631,4.611.351,8.9.77,12.814,1.258,4.258,14.013,11.335,43.221,10.02,63.381-1.731,26.54,13.847,27.406,18.751,26.829l.228-.027c4.626-.536,16.889-1.956,15.874-29.645,3.265,9.811,6.134,19.527,8.287,28.139a20.5,20.5,0,0,0,39.776-9.943A474.143,474.143,0,0,0,573.052,483.8c-3.663-9.212-7.545-18.032-11.415-25.593-3.681-7.192-8.017-14.589-12.849-19.958a39.56,39.56,0,0,0-13.623-9.434,80.366,80.366,0,0,0-14.045-4.5,220.7,220.7,0,0,0-32.144-4.437C480.836,419.254,472.239,418.853,463.606,418.6ZM576.932,580.437s8.793,7.453,14.226,0c7.7,3.588,17.2,6.366,25.406,8.765,10.3,3.01,18.547,5.422,18.609,8.086.114,4.787-46.391,3.768-57.3,2.862C573.31,595.17,576.932,580.437,576.932,580.437Zm-57.053.172s7.431,4.075,12.348-2.033c6.4,3.363,14.641,6.2,21.827,8.681h0c9.007,3.1,16.349,5.634,16.294,7.9-.1,4.07-40.444,2.265-49.668,1.052C517.005,591.791,519.879,580.609,519.879,580.609Z"/><path class="ab" d="M519.879,580.615s7.43,4.075,12.347-2.033c14.41,7.578,38.22,12.509,38.121,16.578s-40.443,2.265-49.667,1.052C517.005,591.8,519.879,580.615,519.879,580.615Z"/><path class="ac" d="M852.467,274.863H832.345v13.7h-.814v5.3h20.936v-19Zm-5.824,91.327h30.451a6.893,6.893,0,1,0,0,13.787H846.643a6.893,6.893,0,0,1,0-13.787Zm35.745,0,20.17-76.889h-5.295L877.094,366.19Zm-24.04-7.475h4.477v7.475h-4.477Z"/><rect class="ad" width="480.373" height="12.812" transform="translate(233.096 84)"/><path class="ae" d="M796.377,316.034h8.452A17.366,17.366,0,0,0,822.2,298.667V206.311a17.366,17.366,0,0,0-17.367-17.367h-8.451a17.373,17.373,0,0,1,14.173,17.074V298.96A17.373,17.373,0,0,1,796.377,316.034Z"/></g></g></svg>